<svg id="Слой_1" data-name="Слой 1" xmlns="http://www.w3.org/2000/svg" viewBox="0 0 24 24"><defs><style>.cls-1{fill:#23b123;}</style></defs><path class="cls-1" d="M-6.18,31.13v-.37l0,0c.48-1.51,1-3,1.46-4.54a.7.7,0,0,0-.06-.63A11.67,11.67,0,0,1-6,21.88c-.07-.42-.08-.84-.17-1.25V19.17c0-.3.06-.61.11-.92a11.78,11.78,0,0,1,2.56-5.92A11.84,11.84,0,0,1,4.05,8c.35-.06.71-.09,1.07-.14h1.4a.37.37,0,0,0,.23,0,9.9,9.9,0,0,1,1.53.22,11.59,11.59,0,0,1,6.33,3.59,11.75,11.75,0,0,1,2.95,10.61A11.3,11.3,0,0,1,14,28.7a11.77,11.77,0,0,1-9.72,3.07A11.14,11.14,0,0,1,0,30.39a.47.47,0,0,0-.4,0L-4.83,31.8a1.06,1.06,0,0,1-.92-.07A1.18,1.18,0,0,1-6.18,31.13Zm2.39-1.65.23-.07,3.14-1a1.06,1.06,0,0,1,.92.1l.27.15a9.92,9.92,0,0,0,7.53,1A9.76,9.76,0,0,0,14,25.79a9.8,9.8,0,0,0,1.7-8,9.71,9.71,0,0,0-4-6.1,9.77,9.77,0,0,0-8-1.75,9.77,9.77,0,0,0-6.09,3.91A9.88,9.88,0,0,0-4.08,22a9.53,9.53,0,0,0,1.24,3.17,1.15,1.15,0,0,1,.12,1.05c-.19.54-.36,1.09-.54,1.64S-3.6,28.9-3.79,29.48Z" transform="translate(6.18 -7.87)"/><path class="cls-1" d="M2.3,19.88a1.18,1.18,0,0,1-1.18,1.17,1.17,1.17,0,0,1,0-2.34A1.17,1.17,0,0,1,2.3,19.88Z" transform="translate(6.18 -7.87)"/><path class="cls-1" d="M5.83,21.05a1.19,1.19,0,0,1-1.18-1.17,1.17,1.17,0,1,1,2.34,0A1.19,1.19,0,0,1,5.83,21.05Z" transform="translate(6.18 -7.87)"/><path class="cls-1" d="M10.5,18.71a1.17,1.17,0,1,1-1.16,1.16A1.18,1.18,0,0,1,10.5,18.71Z" transform="translate(6.18 -7.87)"/></svg>