<svg id="Слой_1" data-name="Слой 1" xmlns="http://www.w3.org/2000/svg" viewBox="0 0 24 24"><defs><style>.cls-1{fill:#23b123;}</style></defs><path class="cls-1" d="M19,21.57a4.25,4.25,0,0,0-.08.61,1.16,1.16,0,0,1-1.25,1A1.15,1.15,0,0,1,16.59,22c0-.42.07-.84.05-1.26a9.49,9.49,0,0,0-5.16-8.45A9.09,9.09,0,0,0,6.8,11.13a9.56,9.56,0,0,0-9.17,7.35,9.32,9.32,0,0,0,3,9.58A9.09,9.09,0,0,0,6,30.39,9.37,9.37,0,0,0,12.1,29a1.19,1.19,0,0,1,1.85.81,1.13,1.13,0,0,1-.58,1.16,11.74,11.74,0,0,1-3.2,1.41A11,11,0,0,1,8,32.74a.39.39,0,0,0-.18,0H6.14a.2.2,0,0,0-.15,0A11.84,11.84,0,0,1,.76,31a12,12,0,0,1-5.67-11.9,11.53,11.53,0,0,1,3.08-6.5A11.71,11.71,0,0,1,8.94,8.94a11.51,11.51,0,0,1,7,3.88A11.77,11.77,0,0,1,18.85,19c0,.33.09.66.13,1Z" transform="translate(5.02 -8.78)"/><path class="cls-1" d="M12.85,17.55a1.13,1.13,0,0,1-.37.85l-1.71,1.71L6.09,24.8a1.17,1.17,0,0,1-1.73,0c-1-1-1.93-1.92-2.88-2.89a1.15,1.15,0,0,1,0-1.67,1.16,1.16,0,0,1,1.68,0c.64.63,1.27,1.26,1.9,1.91.14.14.21.13.34,0l5.4-5.4a1.18,1.18,0,0,1,1.28-.36A1.14,1.14,0,0,1,12.85,17.55Z" transform="translate(5.02 -8.78)"/></svg>