<svg id="Слой_1" data-name="Слой 1" xmlns="http://www.w3.org/2000/svg" viewBox="0 0 24 24"><defs><style>.cls-1{fill:#23b123;}</style></defs><path class="cls-1" d="M6.38,32.43H-3.39A2.07,2.07,0,0,1-5.61,30.2V20.5a1.24,1.24,0,0,1,1.26-1.31,1.25,1.25,0,0,1,1.22,1.17v.31q0,4.5,0,9c0,.22.05.28.28.28H15.63c.23,0,.28-.06.28-.28q0-4.59,0-9.18a1.24,1.24,0,1,1,2.48-.09c0,.48,0,1,0,1.45V30.2a2.08,2.08,0,0,1-2.22,2.23Z" transform="translate(5.61 -8.43)"/><path class="cls-1" d="M7.65,23.17a.55.55,0,0,0,.2-.17c.78-.77,1.55-1.56,2.34-2.33a1.23,1.23,0,0,1,2.05.49A1.17,1.17,0,0,1,12,22.4c-.3.32-.61.63-.93.94L7.39,27a1.27,1.27,0,0,1-2,0L.88,22.48A1.27,1.27,0,0,1,.7,20.81a1.24,1.24,0,0,1,1.9-.12c.78.76,1.55,1.54,2.33,2.31.05.06.1.14.19.16a.62.62,0,0,0,0-.27V9.77a1.26,1.26,0,0,1,.93-1.3A1.24,1.24,0,0,1,7.62,9.6c0,.1,0,.2,0,.31v13A.54.54,0,0,0,7.65,23.17Z" transform="translate(5.61 -8.43)"/></svg>