<svg id="Слой_1" data-name="Слой 1" xmlns="http://www.w3.org/2000/svg" viewBox="0 0 24 29"><defs><style>.cls-1{fill:#23b123;}</style></defs><path class="cls-1" d="M7.94,29.8c-.33-.07-.66-.12-1-.21a4.41,4.41,0,0,1-3.3-4.22,15.27,15.27,0,0,1,1-6.38,5.86,5.86,0,0,1,2.59-3.16,5.32,5.32,0,0,1,2.53-.62,1.52,1.52,0,0,1,.84.29l1.19.77a6.13,6.13,0,0,0,7,0c.33-.21.66-.4,1-.63a2.26,2.26,0,0,1,1.83-.38,5.17,5.17,0,0,1,3.95,2.87,12.59,12.59,0,0,1,1.28,4.58,18.55,18.55,0,0,1,.1,2.47,4.51,4.51,0,0,1-4.12,4.57c-.06,0-.13,0-.18.05Zm7.32-1.65h0c2.31,0,4.61,0,6.91,0a2.93,2.93,0,0,0,3.08-3.2,18,18,0,0,0-.11-2.2A10.77,10.77,0,0,0,24.09,19a3.56,3.56,0,0,0-3-2.1.64.64,0,0,0-.38.1l-1,.67a7.71,7.71,0,0,1-8,.49c-.65-.32-1.22-.77-1.83-1.14-.09,0-.17-.13-.29-.12a3.32,3.32,0,0,0-2.31,1,5.54,5.54,0,0,0-1.16,1.88,14.34,14.34,0,0,0-.8,5.55,2.73,2.73,0,0,0,1.37,2.42,3.71,3.71,0,0,0,2,.46Z" transform="translate(-3.26 -1.18)"/><path class="cls-1" d="M22.75,30.18H7.86c-.1,0-.2,0-.3-.06L6.86,30a4.8,4.8,0,0,1-3.58-4.58,15.57,15.57,0,0,1,1-6.53A6.18,6.18,0,0,1,7,15.5a5.72,5.72,0,0,1,2.7-.68,1.91,1.91,0,0,1,1,.36l.53.34L12,16a5.75,5.75,0,0,0,6.59,0l.18-.11a8.14,8.14,0,0,0,.75-.5,2.72,2.72,0,0,1,2.12-.45A5.58,5.58,0,0,1,25.83,18a12.47,12.47,0,0,1,1.32,4.71,18.79,18.79,0,0,1,.11,2.53,4.88,4.88,0,0,1-4.46,4.94ZM8,29.42H22.47a.6.6,0,0,1,.23-.05,4.14,4.14,0,0,0,3.8-4.19,17.3,17.3,0,0,0-.1-2.43,11.84,11.84,0,0,0-1.23-4.44,4.77,4.77,0,0,0-3.67-2.67,1.91,1.91,0,0,0-1.55.3c-.27.2-.55.38-.82.55l-.17.1a6.51,6.51,0,0,1-7.39,0l-.67-.43-.52-.34a1.17,1.17,0,0,0-.63-.24,5,5,0,0,0-2.37.58,5.44,5.44,0,0,0-2.41,3A14.7,14.7,0,0,0,4,25.35a4,4,0,0,0,3,3.87,6.4,6.4,0,0,0,.63.14Zm11.44-.89H8.62A4,4,0,0,1,6.47,28a3.13,3.13,0,0,1-1.56-2.74,14.69,14.69,0,0,1,.83-5.7,5.67,5.67,0,0,1,1.24-2,3.74,3.74,0,0,1,2.55-1.09.76.76,0,0,1,.47.16c.27.16.5.31.72.46a10.26,10.26,0,0,0,1.13.68,7.3,7.3,0,0,0,7.62-.46c.34-.22.69-.44,1-.67a1,1,0,0,1,.62-.16,4,4,0,0,1,3.32,2.3,11.29,11.29,0,0,1,1.08,3.9,18,18,0,0,1,.12,2.25,3.32,3.32,0,0,1-3.45,3.58Zm-4.54-.77h2.47c1.58,0,3.21,0,4.82,0a2.54,2.54,0,0,0,2.7-2.81,16.22,16.22,0,0,0-.11-2.15,10.31,10.31,0,0,0-1-3.63,3.15,3.15,0,0,0-2.7-1.9.17.17,0,0,0-.15,0l-1,.68a8.08,8.08,0,0,1-8.35.5,10.21,10.21,0,0,1-1.21-.73c-.22-.14-.43-.29-.65-.42l-.07,0-.05,0a3,3,0,0,0-2,.87,5.05,5.05,0,0,0-1.08,1.75,13.91,13.91,0,0,0-.78,5.4,2.4,2.4,0,0,0,1.19,2.1,3.29,3.29,0,0,0,1.77.41h6.26Z" transform="translate(-3.26 -1.18)"/><path class="cls-1" d="M21.8,8.36a6.72,6.72,0,1,1-13.43,0,6.72,6.72,0,1,1,13.43,0Zm-6.71,5.16a5.1,5.1,0,0,0,5.08-5.15A5.08,5.08,0,1,0,10,8.37,5.11,5.11,0,0,0,15.09,13.52Z" transform="translate(-3.26 -1.18)"/><path class="cls-1" d="M15,15.55a6.94,6.94,0,0,1-4.92-2.05,7.28,7.28,0,0,1-.07-10.2,7,7,0,0,1,5-2.12h0a7.17,7.17,0,0,1,7.09,7.18h0a7.17,7.17,0,0,1-7.08,7.19ZM15.09,2a6.25,6.25,0,0,0-4.5,1.89A6.48,6.48,0,0,0,10.65,13a6.3,6.3,0,0,0,4.45,1.84,6.4,6.4,0,0,0,6.32-6.43h0A6.39,6.39,0,0,0,15.09,2Zm0,12h0a5.56,5.56,0,0,1-3.87-9.45,5.4,5.4,0,0,1,3.87-1.61h0A5.41,5.41,0,0,1,19,4.45a5.6,5.6,0,0,1,1.59,3.92A5.51,5.51,0,0,1,15.09,13.9Zm0-10.3A4.65,4.65,0,0,0,11.76,5a4.79,4.79,0,0,0,3.33,8.14h0A4.78,4.78,0,0,0,18.42,5a4.64,4.64,0,0,0-3.33-1.4Z" transform="translate(-3.26 -1.18)"/></svg>