<svg id="Слой_1" data-name="Слой 1" xmlns="http://www.w3.org/2000/svg" viewBox="0 0 32 32"><defs><style>.cls-1{fill:#23b123;}</style></defs><path class="cls-1" d="M-.46,30.91v-.5l0,0c.65-2,1.29-4,2-6.06a1,1,0,0,0-.07-.84,15.25,15.25,0,0,1-1.69-4.9C-.32,18-.34,17.45-.46,16.9V15c.05-.42.09-.83.15-1.24A15.66,15.66,0,0,1,3.1,5.84,15.73,15.73,0,0,1,13.18.08c.48-.08,1-.12,1.42-.18h1.88a.61.61,0,0,0,.3.05,13.9,13.9,0,0,1,2,.28A15.59,15.59,0,0,1,27.26,5,15.66,15.66,0,0,1,31.2,19.17a15.17,15.17,0,0,1-4.81,8.49,15.69,15.69,0,0,1-13,4.1,14.91,14.91,0,0,1-5.6-1.84.6.6,0,0,0-.52-.05l-6,1.93a1.4,1.4,0,0,1-1.23-.1A1.67,1.67,0,0,1-.46,30.91Zm3.19-2.2L3,28.62l4.19-1.35a1.38,1.38,0,0,1,1.22.13l.36.2a13.25,13.25,0,0,0,10,1.39,13.06,13.06,0,0,0,7.62-5.2,13.06,13.06,0,0,0,2.28-10.64A13,13,0,0,0,23.47,5,13,13,0,0,0,12.82,2.69a13,13,0,0,0-8.11,5.2,13.16,13.16,0,0,0-2.37,10.8A12.56,12.56,0,0,0,4,22.9a1.55,1.55,0,0,1,.16,1.4c-.25.73-.48,1.46-.72,2.2Z" transform="translate(0.46 0.1)"/><path class="cls-1" d="M10.85,15.91a1.56,1.56,0,1,1-1.54-1.57A1.57,1.57,0,0,1,10.85,15.91Z" transform="translate(0.46 0.1)"/><path class="cls-1" d="M15.56,17.46a1.56,1.56,0,1,1,1.54-1.55A1.57,1.57,0,0,1,15.56,17.46Z" transform="translate(0.46 0.1)"/><path class="cls-1" d="M21.78,14.34a1.56,1.56,0,1,1-1.55,1.56A1.57,1.57,0,0,1,21.78,14.34Z" transform="translate(0.46 0.1)"/></svg>